<?xml version="1.0" encoding="iso-8859-1"?>
<!-- Generator: Adobe Illustrator 19.0.0, SVG Export Plug-In . SVG Version: 6.00 Build 0)  -->
<svg version="1.1" id="Layer_1" xmlns="http://www.w3.org/2000/svg" xmlns:xlink="http://www.w3.org/1999/xlink" x="0px" y="0px"
	 viewBox="0 0 512 512" style="enable-background:new 0 0 512 512;" xml:space="preserve">
<path id="SVGCleanerId_0" style="fill:#C9E3F7;" d="M460.8,452.878L341.333,245.956V34.133H170.667v211.823L51.2,452.878
	C32.427,485.395,47.787,512,85.333,512h341.333C464.213,512,479.573,485.395,460.8,452.878z"/>
<g>
	<path id="SVGCleanerId_0_1_" style="fill:#C9E3F7;" d="M460.8,452.878L341.333,245.956V34.133H170.667v211.823L51.2,452.878
		C32.427,485.395,47.787,512,85.333,512h341.333C464.213,512,479.573,485.395,460.8,452.878z"/>
</g>
<path style="fill:#D80027;" d="M460.8,452.878L376.694,307.2h-1.227c-59.733,0-59.733-40.96-119.467-40.96
	s-59.733,40.96-119.467,40.96h-1.227L51.2,452.878C32.427,485.395,47.787,512,85.333,512H256h170.667
	C464.213,512,479.573,485.395,460.8,452.878z"/>
<rect x="136.533" style="fill:#AED5F3;" width="238.933" height="68.267"/>
<rect x="256" style="fill:#93C7EF;" width="119.467" height="68.267"/>
<g>
	<path style="fill:#A2001D;" d="M376.694,307.2L460.8,452.878C479.573,485.395,464.213,512,426.667,512H256V266.24
		c59.733,0,59.733,40.96,119.467,40.96H376.694z"/>
	<circle style="fill:#A2001D;" cx="187.733" cy="375.467" r="34.133"/>
</g>
<g>
	<circle style="fill:#D80027;" cx="332.8" cy="418.133" r="42.667"/>
	<circle style="fill:#D80027;" cx="238.933" cy="187.733" r="34.133"/>
</g>
<circle style="fill:#A2001D;" cx="290.133" cy="119.467" r="17.067"/>
<g>
</g>
<g>
</g>
<g>
</g>
<g>
</g>
<g>
</g>
<g>
</g>
<g>
</g>
<g>
</g>
<g>
</g>
<g>
</g>
<g>
</g>
<g>
</g>
<g>
</g>
<g>
</g>
<g>
</g>
</svg>
